<?xml version="1.0" encoding="UTF-8" standalone="no"?>
<!DOCTYPE svg PUBLIC "-//W3C//DTD SVG 1.1//EN" "http://www.w3.org/Graphics/SVG/1.1/DTD/svg11.dtd">
<svg width="100%" height="100%" viewBox="0 0 747 694" version="1.1" xmlns="http://www.w3.org/2000/svg" xmlns:xlink="http://www.w3.org/1999/xlink" xml:space="preserve" xmlns:serif="http://www.serif.com/" style="fill-rule:evenodd;clip-rule:evenodd;stroke-linejoin:round;stroke-miterlimit:2;">
    <g transform="matrix(1,0,0,1,-1021.72,-2424.35)">
        <g>
            <g transform="matrix(35.5571,0,0,-35.5522,1003.94,3126.51)">
                <path d="M2.398,19.75C1.359,19.75 0.5,18.891 0.5,17.852L0.5,15.648C0.5,14.746 1.148,13.98 2,13.797L2,2.336C2,1.195 2.945,0.25 4.086,0.25L17.914,0.25C19.055,0.25 20,1.195 20,2.336L20,13.797C20.852,13.98 21.5,14.746 21.5,15.648L21.5,17.852C21.5,18.891 20.641,19.75 19.602,19.75L2.398,19.75ZM2.398,18.25L19.602,18.25C19.836,18.25 20,18.086 20,17.852L20,15.648C20,15.414 19.836,15.25 19.602,15.25L2.398,15.25C2.164,15.25 2,15.414 2,15.648L2,17.852C2,18.086 2.164,18.25 2.398,18.25ZM3.5,13.75L18.5,13.75L18.5,2.336C18.5,2 18.25,1.75 17.914,1.75L4.086,1.75C3.75,1.75 3.5,2 3.5,2.336L3.5,13.75Z" style="fill-rule:nonzero;"/>
            </g>
            <g transform="matrix(35.5571,0,0,-35.5522,1003.94,3073.18)">
                <path d="M8.758,10C8.344,10 8.008,9.664 8.008,9.25C8.008,8.836 8.344,8.5 8.758,8.5L13.242,8.5C13.656,8.5 13.992,8.836 13.992,9.25C13.992,9.664 13.656,10 13.242,10L8.758,10Z" style="fill-rule:nonzero;"/>
            </g>
        </g>
    </g>
</svg>
