<svg width="33" height="33" viewBox="0 0 33 33" fill="none" xmlns="http://www.w3.org/2000/svg">
<path d="M23.375 13.75V11C23.375 7.20304 20.297 4.125 16.5 4.125C12.703 4.125 9.625 7.20304 9.625 11V13.75M16.5 19.9375V22.6875M12.1 28.875H20.9C23.2102 28.875 24.3653 28.875 25.2477 28.4254C26.0239 28.0299 26.6549 27.3989 27.0504 26.6227C27.5 25.7403 27.5 24.5852 27.5 22.275V20.35C27.5 18.0398 27.5 16.8847 27.0504 16.0023C26.6549 15.2261 26.0239 14.5951 25.2477 14.1996C24.3653 13.75 23.2102 13.75 20.9 13.75H12.1C9.78978 13.75 8.63468 13.75 7.75229 14.1996C6.97612 14.5951 6.34508 15.2261 5.9496 16.0023C5.5 16.8847 5.5 18.0398 5.5 20.35V22.275C5.5 24.5852 5.5 25.7403 5.9496 26.6227C6.34508 27.3989 6.97612 28.0299 7.75229 28.4254C8.63468 28.875 9.78978 28.875 12.1 28.875Z" stroke="white" stroke-width="2" stroke-linecap="round" stroke-linejoin="round"/>
</svg>
