<?xml version="1.0" encoding="UTF-8" standalone="no"?>
<!DOCTYPE svg PUBLIC "-//W3C//DTD SVG 1.1//EN" "http://www.w3.org/Graphics/SVG/1.1/DTD/svg11.dtd">
<svg width="100%" height="100%" viewBox="0 0 981 713" version="1.1" xmlns="http://www.w3.org/2000/svg" xmlns:xlink="http://www.w3.org/1999/xlink" xml:space="preserve" xmlns:serif="http://www.serif.com/" style="fill-rule:evenodd;clip-rule:evenodd;stroke-linejoin:round;stroke-miterlimit:2;">
    <g transform="matrix(1,0,0,1,-3650.42,-2417.83)">
        <g transform="matrix(1.0318,0,0,-1.02959,3624.63,3288.83)">
            <path d="M974.204,238.595L948.91,409.573C939.643,472.208 895.715,523.071 838.573,543.753C865.446,571.437 882.038,609.15 882.038,650.686L882.038,692.295C882.038,777.028 813.105,845.961 728.37,845.961C643.64,845.961 574.707,777.028 574.707,692.295L574.707,650.686C574.707,609.151 591.298,571.438 618.17,543.754C561.029,523.073 517.1,472.211 507.829,409.573L500,356.647L492.171,409.573C482.904,472.208 438.976,523.071 381.834,543.753C408.707,571.437 425.299,609.15 425.299,650.686L425.299,692.295C425.299,777.028 356.366,845.961 271.63,845.961C186.901,845.961 117.967,777.028 117.967,692.295L117.967,650.686C117.967,609.151 134.559,571.438 161.431,543.754C104.29,523.073 60.361,472.211 51.09,409.576L25.796,238.595C22.655,217.36 28.899,195.862 42.917,179.61C56.941,163.359 77.298,154.04 98.763,154.04L901.237,154.04C922.702,154.04 943.059,163.359 957.082,179.61C971.101,195.862 977.345,217.36 974.203,238.595L974.204,238.595ZM631.444,692.295C631.444,745.741 674.923,789.223 728.37,789.223C781.816,789.223 825.3,745.741 825.3,692.295L825.3,650.686C825.3,597.243 781.816,553.761 728.37,553.761C674.923,553.761 631.444,597.243 631.444,650.686L631.444,692.295ZM174.705,692.295C174.705,745.741 218.184,789.223 271.63,789.223C325.077,789.223 368.561,745.741 368.561,692.295L368.561,650.686C368.561,597.243 325.077,553.761 271.63,553.761C218.184,553.761 174.705,597.243 174.705,650.686L174.705,692.295L174.705,692.295ZM98.763,210.777C91.981,210.777 87.776,214.476 85.875,216.678C83.975,218.881 80.933,223.582 81.925,230.289L107.218,401.27C115.297,455.858 162.998,497.023 218.178,497.023L325.083,497.023C380.263,497.023 427.97,455.858 436.043,401.273L464.223,210.777L98.763,210.777L98.763,210.777ZM914.125,216.678C912.224,214.476 908.019,210.777 901.237,210.777L535.777,210.777L563.957,401.27C572.036,455.858 619.737,497.023 674.917,497.023L781.822,497.023C837.002,497.023 884.709,455.858 892.782,401.27L918.075,230.289C919.067,223.582 916.025,218.881 914.125,216.678L914.125,216.678Z" style="fill-rule:nonzero;"/>
        </g>
    </g>
</svg>
