<?xml version="1.0" encoding="UTF-8" standalone="no"?>
<!DOCTYPE svg PUBLIC "-//W3C//DTD SVG 1.1//EN" "http://www.w3.org/Graphics/SVG/1.1/DTD/svg11.dtd">
<svg width="100%" height="100%" viewBox="0 0 585 745" version="1.1" xmlns="http://www.w3.org/2000/svg" xmlns:xlink="http://www.w3.org/1999/xlink" xml:space="preserve" xmlns:serif="http://www.serif.com/" style="fill-rule:evenodd;clip-rule:evenodd;stroke-linejoin:round;stroke-miterlimit:2;">
    <g transform="matrix(1,0,0,1,-2914.11,-2383.78)">
        <g transform="matrix(26.5582,0,0,-26.5729,2781.32,3183.38)">
            <path d="M16,30.091C9.929,30.091 5,25.162 5,19.091C5,16.313 6.654,13.01 8.699,10.072C11.638,5.848 15.312,2.365 15.312,2.365C15.698,2 16.302,2 16.688,2.365C16.688,2.365 20.362,5.848 23.301,10.072C25.346,13.01 27,16.313 27,19.091C27,25.162 22.071,30.091 16,30.091L16,30.091ZM16,28.091C20.967,28.091 25,24.058 25,19.091C25,16.653 23.454,13.793 21.659,11.214C19.6,8.255 17.165,5.674 16,4.496C14.835,5.674 12.4,8.255 10.341,11.214C8.546,13.793 7,16.653 7,19.091C7,24.058 11.033,28.091 16,28.091L16,28.091ZM16,24.591C12.964,24.591 10.5,22.127 10.5,19.091C10.5,16.055 12.964,13.591 16,13.591C19.036,13.591 21.5,16.055 21.5,19.091C21.5,22.127 19.036,24.591 16,24.591ZM16,22.591C17.932,22.591 19.5,21.023 19.5,19.091C19.5,17.159 17.932,15.591 16,15.591C14.068,15.591 12.5,17.159 12.5,19.091C12.5,21.023 14.068,22.591 16,22.591Z"/>
        </g>
    </g>
</svg>
