<?xml version="1.0" encoding="UTF-8" standalone="no"?>
<!DOCTYPE svg PUBLIC "-//W3C//DTD SVG 1.1//EN" "http://www.w3.org/Graphics/SVG/1.1/DTD/svg11.dtd">
<svg width="100%" height="100%" viewBox="0 0 958 482" version="1.1" xmlns="http://www.w3.org/2000/svg" xmlns:xlink="http://www.w3.org/1999/xlink" xml:space="preserve" xmlns:serif="http://www.serif.com/" style="fill-rule:evenodd;clip-rule:evenodd;stroke-linejoin:round;stroke-miterlimit:2;">
    <g transform="matrix(1,0,0,1,-1380.97,-2388.11)">
        <g>
            <g transform="matrix(0.545872,0,0,-0.546316,1380.97,3072.8)">
                <path d="M519.164,626.637C519.164,641.266 507.809,653.125 493.805,653.125L250.957,653.125C236.949,653.125 225.594,641.266 225.594,626.637C225.594,612.008 236.949,600.148 250.957,600.148L493.805,600.148C507.809,600.148 519.164,612.008 519.164,626.637" style="fill:rgb(31,33,36);fill-rule:nonzero;"/>
            </g>
            <g transform="matrix(0.545872,0,0,-0.546316,1380.97,2746.71)">
                <path d="M255.859,354.684C241.855,354.684 230.5,342.824 230.5,328.191C230.5,313.562 241.855,301.703 255.859,301.703L486.648,301.703C500.656,301.703 512.012,313.562 512.012,328.191C512.012,342.824 500.656,354.684 486.648,354.684L255.859,354.684" style="fill:rgb(31,33,36);fill-rule:nonzero;"/>
            </g>
            <g transform="matrix(0.545872,0,0,-0.546316,1380.97,2583.66)">
                <path d="M195.281,152.484L266.297,152.484C280.301,152.484 291.656,164.344 291.656,178.973C291.656,193.602 280.301,205.461 266.297,205.461L195.281,205.461C181.277,205.461 169.922,193.602 169.922,178.973C169.922,164.344 181.277,152.484 195.281,152.484" style="fill:rgb(31,33,36);fill-rule:nonzero;"/>
            </g>
            <g transform="matrix(0.545872,0,0,-0.546316,1380.97,2909.75)">
                <path d="M619.152,477.418C619.152,492.047 607.797,503.906 593.789,503.906L200.355,503.906C186.348,503.906 174.992,492.047 174.992,477.418C174.992,462.785 186.348,450.926 200.355,450.926L593.789,450.926C607.797,450.926 619.152,462.785 619.152,477.418" style="fill:rgb(31,33,36);fill-rule:nonzero;"/>
            </g>
            <g transform="matrix(0.545872,0,0,-0.546316,1380.97,2909.75)">
                <path d="M68.477,503.906L25.363,503.906C11.355,503.906 0,492.047 0,477.418C0,462.785 11.355,450.926 25.363,450.926L68.477,450.926C82.484,450.926 93.836,462.785 93.836,477.418C93.836,492.047 82.484,503.906 68.477,503.906" style="fill:rgb(31,33,36);fill-rule:nonzero;"/>
            </g>
            <g transform="matrix(0.545872,0,0,-0.546316,1380.97,2583.66)">
                <path d="M364.242,152.484L606.473,152.484C616.414,152.484 625.035,158.469 629.195,167.211C630.895,170.762 631.832,174.734 631.832,178.973C631.832,183.211 630.895,187.184 629.195,190.734C625.035,199.473 616.414,205.461 606.473,205.461L364.242,205.461C354.301,205.461 345.676,199.473 341.543,190.762C339.844,187.211 338.879,183.211 338.879,178.973C338.879,174.734 339.844,170.734 341.543,167.184C345.676,158.469 354.301,152.484 364.242,152.484" style="fill:rgb(31,33,36);fill-rule:nonzero;"/>
            </g>
            <g transform="matrix(0.545872,0,0,-0.546316,1380.97,2869.38)">
                <path d="M1704.17,191.48C1704.17,166.191 1684.54,145.688 1660.33,145.688L1640.7,145.688C1640.72,146.574 1640.76,147.449 1640.76,148.336C1640.76,230.133 1577.06,296.676 1498.74,296.676C1420.43,296.676 1356.72,230.133 1356.72,148.336C1356.72,147.449 1356.76,146.574 1356.78,145.688L1262.88,145.688L1262.88,694.012L1522.55,694.012C1540.87,694.012 1557.91,684.172 1567.66,667.957L1693.1,459.215C1699.97,447.781 1703.73,434.641 1704.09,421.176L1470.84,421.176L1470.84,603.398C1470.84,617.832 1460.02,630.031 1446.19,630.426C1431.86,630.836 1420.12,618.824 1420.12,603.949L1420.12,394.684C1420.12,380.055 1431.47,368.195 1445.48,368.195L1704.17,368.195L1704.17,191.48ZM1589.94,143.863C1587.79,94.945 1549.86,55.328 1503.02,53.078C1449.31,50.5 1405.07,96.707 1407.54,152.816C1409.69,201.734 1447.62,241.348 1494.46,243.594C1548.18,246.172 1592.41,199.969 1589.94,143.863ZM813.879,143.863C811.727,94.945 773.801,55.328 726.965,53.078C673.242,50.5 629.004,96.707 631.477,152.813C633.629,201.73 671.559,241.348 718.395,243.594C772.113,246.172 816.352,199.969 813.879,143.863ZM1736.06,487.379L1610.61,696.121C1591.47,727.973 1558.55,746.988 1522.55,746.988L1262.84,746.988C1262.59,768.434 1257.61,788.707 1248.92,806.711C1226.79,852.563 1181.23,880.93 1132.08,880.93L481.48,880.93C444.289,875.852 411.965,854.402 391.359,823.762C378.695,804.918 385.621,785.664 407.352,781.805C417.176,780.059 426.926,784.414 432.43,792.77C446.887,814.715 471.098,829.105 498.527,829.105L1131.97,829.105C1176.25,829.105 1212.14,791.605 1212.14,745.352L1212.14,145.688L864.637,145.688C864.652,146.574 864.703,147.449 864.703,148.336C864.703,230.133 800.988,296.676 722.68,296.676C644.367,296.676 580.656,230.133 580.656,148.336C580.656,147.449 580.703,146.574 580.719,145.688L498.527,145.688C477.684,145.688 458.711,154.008 444.457,167.625C439.691,172.176 433.551,174.828 427.098,174.828C404.082,174.828 392.934,145.285 409.848,128.977C433.18,106.477 464.34,92.711 498.527,92.711L591.055,92.711C612.168,38.406 663.195,0 722.68,0C782.16,0 833.188,38.406 854.301,92.711L1367.12,92.711C1388.23,38.406 1439.26,0 1498.74,0C1558.22,0 1609.25,38.406 1630.36,92.711L1660.33,92.711C1712.55,92.711 1754.89,136.93 1754.89,191.48L1754.89,419.051C1754.89,443.254 1748.38,466.879 1736.06,487.379" style="fill:rgb(31,33,36);fill-rule:nonzero;"/>
            </g>
        </g>
    </g>
</svg>
