<?xml version="1.0" encoding="UTF-8" standalone="no"?>
<!DOCTYPE svg PUBLIC "-//W3C//DTD SVG 1.1//EN" "http://www.w3.org/Graphics/SVG/1.1/DTD/svg11.dtd">
<svg width="100%" height="100%" viewBox="0 0 575 541" version="1.1" xmlns="http://www.w3.org/2000/svg" xmlns:xlink="http://www.w3.org/1999/xlink" xml:space="preserve" xmlns:serif="http://www.serif.com/" style="fill-rule:evenodd;clip-rule:evenodd;stroke-linejoin:round;stroke-miterlimit:2;">
    <g transform="matrix(1,0,0,1,-3594.21,-2335.23)">
        <g>
            <g transform="matrix(6.96541,0,0,-6.98482,3567.13,2947.1)">
                <path d="M70.7,59.8C70.7,60.3 70.5,60.5 70.5,60.5C70.4,60.7 70.2,60.9 70,61.1L44.6,76.5C44.1,76.8 43.5,76.8 43,76.5L17.5,61.1C17.2,60.9 17,60.6 16.9,60.3L16.9,60.2C16.8,60 16.8,59.9 16.8,59.7L16.8,33.7C16.8,33.2 17.1,32.7 17.5,32.4L43.5,17.2C43.7,17.1 43.9,17.1 44.3,17.1C44.6,17.1 44.9,17.2 45,17.3L70,32.5C70.4,32.8 70.7,33.3 70.7,33.8L70.7,59.8ZM43.8,73.5L66.4,59.8L59.5,55.6L36.8,69.3L43.8,73.5ZM33.9,67.5L56.5,53.8L54.3,52.4L31.7,66.1L33.9,67.5ZM55.7,49.8L57.7,51L57.7,45.2L55.7,44L55.7,49.8ZM28.8,64.4L51.4,50.7L44.2,46.3L21.2,59.8L28.8,64.4ZM19.7,57.2L42.7,43.7L42.7,21L19.7,34.5L19.7,57.2ZM45.7,21.1L45.7,43.7L52.7,48L52.7,41.4C52.7,40.9 53,40.4 53.5,40.1C53.7,40 54,39.9 54.2,39.9C54.5,39.9 54.7,40 55,40.1L60,43.1C60.5,43.4 60.7,43.9 60.7,44.4L60.7,52.9L67.7,57.2L67.7,34.6L45.7,21.1Z" style="fill-rule:nonzero;"/>
            </g>
            <g transform="matrix(6.96541,0,0,-6.98482,3567.13,2627.2)">
                <path d="M7.9,6.3L8.1,6.3C8.4,6.3 8.7,6.4 9,6.6L12.5,9.3C13.2,9.8 13.3,10.7 12.8,11.4C12.3,12.1 11.4,12.2 10.7,11.7L10.2,11.3C14,27.4 28.3,38.8 45,38.8C62.6,38.8 77.4,26.2 80.2,8.9C80.3,8.2 81,7.6 81.7,7.6L81.9,7.6C82.7,7.7 83.3,8.5 83.1,9.3C80.2,28.2 64.1,41.8 45,41.8C26.7,41.8 11.1,29.2 7.2,11.5L6.6,12.3C6.1,13 5.2,13.1 4.5,12.6C3.8,12.1 3.7,11.1 4.2,10.5L6.9,6.9C7.2,6.6 7.5,6.4 7.9,6.3Z" style="fill-rule:nonzero;"/>
            </g>
            <g transform="matrix(6.96541,0,0,-6.98482,3567.13,3197.86)">
                <path d="M85.9,79.7L83,83C82.5,83.6 81.5,83.7 80.9,83.2L77.5,80.3C76.9,79.8 76.8,78.8 77.3,78.2C77.8,77.6 78.8,77.5 79.4,78L80.1,78.6C77.1,61.5 62.4,49.1 44.9,49.1C28,49.1 13.3,61.1 9.9,77.6C9.7,78.4 8.9,78.9 8.1,78.8C7.3,78.6 6.8,77.8 6.9,77C10.7,59.1 26.7,46.1 45,46.1C64,46.1 80,59.6 83.2,78.3L83.7,77.7C84,77.4 84.4,77.2 84.8,77.2C85.1,77.2 85.5,77.3 85.8,77.6C86.4,78.1 86.5,79.1 85.9,79.7Z" style="fill-rule:nonzero;"/>
            </g>
        </g>
    </g>
</svg>
