<svg width="33" height="33" viewBox="0 0 33 33" fill="none" xmlns="http://www.w3.org/2000/svg">
<path d="M10.8194 21.2574L9.625 30.25L15.9341 26.4646C16.1398 26.3411 16.2427 26.2794 16.3525 26.2553C16.4497 26.2339 16.5503 26.2339 16.6475 26.2553C16.7573 26.2794 16.8602 26.3411 17.0659 26.4646L23.375 30.25L22.1814 21.2535M22.5856 5.84221C22.7979 6.3558 23.2056 6.76404 23.7188 6.97717L25.5185 7.72266C26.0321 7.93542 26.4402 8.34349 26.6529 8.85712C26.8657 9.37075 26.8657 9.94786 26.6529 10.4615L25.908 12.26C25.6952 12.7738 25.6949 13.3515 25.9087 13.8651L26.6523 15.6631C26.7578 15.9175 26.8121 16.1902 26.8121 16.4656C26.8122 16.741 26.758 17.0137 26.6526 17.2681C26.5472 17.5225 26.3927 17.7537 26.198 17.9484C26.0032 18.1431 25.772 18.2975 25.5175 18.4028L23.7191 19.1478C23.2055 19.3601 22.7973 19.7677 22.5842 20.281L21.8387 22.0808C21.626 22.5944 21.2179 23.0025 20.7043 23.2153C20.1907 23.428 19.6136 23.428 19.1 23.2153L17.3016 22.4703C16.7879 22.2581 16.2111 22.2585 15.6978 22.4715L13.898 23.2159C13.3847 23.4282 12.8081 23.428 12.2949 23.2154C11.7817 23.0029 11.3739 22.5953 11.161 22.0822L10.4153 20.2819C10.203 19.7683 9.79537 19.36 9.28212 19.1469L7.4824 18.4014C6.96902 18.1887 6.56108 17.7809 6.34825 17.2676C6.13543 16.7543 6.13514 16.1774 6.34745 15.6639L7.09238 13.8654C7.30461 13.3517 7.30417 12.7748 7.09118 12.2615L6.34732 10.4604C6.24185 10.206 6.18754 9.93336 6.1875 9.65796C6.18746 9.38257 6.24167 9.10987 6.34706 8.85545C6.45244 8.60102 6.60692 8.36985 6.80168 8.17515C6.99643 7.98045 7.22764 7.82604 7.4821 7.72073L9.28052 6.97577C9.79365 6.76359 10.2016 6.35649 10.4149 5.84381L11.1604 4.04402C11.3731 3.53039 11.7812 3.12232 12.2948 2.90956C12.8084 2.69681 13.3855 2.69681 13.8991 2.90956L15.6975 3.65453C16.2112 3.86675 16.788 3.86632 17.3013 3.65332L19.1018 2.91072C19.6154 2.69809 20.1923 2.69813 20.7058 2.91084C21.2193 3.12355 21.6273 3.53151 21.8401 4.04501L22.5858 5.84533L22.5856 5.84221Z" stroke="white" stroke-width="2" stroke-linecap="round" stroke-linejoin="round"/>
</svg>
