<?xml version="1.0" encoding="UTF-8" standalone="no"?>
<!DOCTYPE svg PUBLIC "-//W3C//DTD SVG 1.1//EN" "http://www.w3.org/Graphics/SVG/1.1/DTD/svg11.dtd">
<svg width="100%" height="100%" viewBox="0 0 955 572" version="1.1" xmlns="http://www.w3.org/2000/svg" xmlns:xlink="http://www.w3.org/1999/xlink" xml:space="preserve" xmlns:serif="http://www.serif.com/" style="fill-rule:evenodd;clip-rule:evenodd;stroke-linejoin:round;stroke-miterlimit:2;">
    <g transform="matrix(1,0,0,1,-2443.59,-2335.23)">
        <g>
            <g transform="matrix(15.9012,0,0,-15.884,2411.78,3129.45)">
                <path d="M61.79,31.611L54.79,40.611C54.696,40.734 54.579,40.829 54.44,40.898C54.302,40.966 54.155,41.001 54,41.001L45,41.001L45,45.001C45,45.165 44.992,45.328 44.976,45.491C44.96,45.654 44.936,45.816 44.904,45.977C44.872,46.137 44.832,46.296 44.785,46.453C44.737,46.609 44.682,46.763 44.619,46.915C44.557,47.066 44.487,47.214 44.41,47.358C44.332,47.503 44.248,47.643 44.157,47.779C44.066,47.915 43.969,48.047 43.865,48.173C43.761,48.3 43.651,48.421 43.536,48.537C43.42,48.653 43.299,48.762 43.172,48.866C43.045,48.97 42.914,49.068 42.778,49.159C42.642,49.25 42.501,49.334 42.357,49.411C42.213,49.488 42.065,49.558 41.913,49.621C41.762,49.683 41.608,49.738 41.451,49.786C41.295,49.834 41.136,49.873 40.975,49.905C40.815,49.937 40.653,49.961 40.49,49.977C40.327,49.993 40.164,50.001 40,50.001L7,50.001C6.836,50.001 6.673,49.993 6.51,49.977C6.347,49.961 6.185,49.937 6.025,49.905C5.864,49.873 5.705,49.834 5.549,49.786C5.392,49.738 5.238,49.683 5.087,49.621C4.935,49.558 4.787,49.488 4.643,49.411C4.499,49.334 4.358,49.25 4.222,49.159C4.086,49.068 3.955,48.97 3.828,48.866C3.701,48.762 3.58,48.653 3.464,48.537C3.349,48.421 3.239,48.3 3.135,48.173C3.031,48.047 2.934,47.915 2.843,47.779C2.752,47.643 2.668,47.503 2.59,47.358C2.513,47.214 2.443,47.066 2.381,46.915C2.318,46.763 2.263,46.609 2.215,46.453C2.168,46.296 2.128,46.137 2.096,45.977C2.064,45.816 2.04,45.654 2.024,45.491C2.008,45.328 2,45.165 2,45.001L2,24.001C2,23.838 2.008,23.674 2.024,23.511C2.04,23.348 2.064,23.186 2.096,23.026C2.128,22.865 2.168,22.707 2.215,22.55C2.263,22.393 2.318,22.239 2.381,22.088C2.443,21.937 2.513,21.789 2.59,21.644C2.668,21.5 2.752,21.36 2.843,21.223C2.934,21.087 3.031,20.956 3.135,20.829C3.239,20.703 3.349,20.582 3.464,20.466C3.58,20.35 3.701,20.24 3.828,20.136C3.955,20.032 4.086,19.935 4.222,19.844C4.358,19.753 4.499,19.669 4.643,19.592C4.787,19.514 4.935,19.445 5.087,19.382C5.238,19.319 5.392,19.264 5.549,19.217C5.705,19.169 5.864,19.129 6.025,19.097C6.185,19.065 6.347,19.041 6.51,19.025C6.673,19.009 6.836,19.001 7,19.001C7.133,19.001 7.26,19.027 7.383,19.077C7.505,19.128 7.613,19.2 7.707,19.294C7.801,19.388 7.873,19.496 7.924,19.619C7.975,19.741 8,19.869 8,20.001C8,20.134 7.975,20.261 7.924,20.384C7.873,20.506 7.801,20.615 7.707,20.708C7.613,20.802 7.505,20.874 7.383,20.925C7.26,20.976 7.133,21.001 7,21.001C6.803,21.001 6.608,21.02 6.415,21.059C6.222,21.097 6.034,21.154 5.852,21.23C5.67,21.305 5.497,21.397 5.333,21.507C5.17,21.616 5.018,21.741 4.879,21.88C4.739,22.019 4.615,22.171 4.506,22.335C4.396,22.498 4.304,22.671 4.228,22.853C4.153,23.035 4.096,23.223 4.058,23.416C4.019,23.609 4,23.804 4,24.001L4,28.001L43,28.001L43,21.001L22.91,21.001C22.889,21.124 22.865,21.245 22.837,21.366C22.809,21.486 22.777,21.606 22.741,21.725C22.705,21.844 22.666,21.961 22.623,22.077C22.58,22.194 22.534,22.309 22.484,22.422C22.434,22.535 22.38,22.647 22.323,22.757C22.267,22.867 22.206,22.976 22.143,23.082C22.079,23.188 22.012,23.293 21.942,23.395C21.872,23.497 21.799,23.597 21.722,23.695C21.646,23.793 21.567,23.888 21.485,23.981C21.402,24.073 21.317,24.163 21.229,24.251C21.142,24.338 21.051,24.423 20.958,24.505C20.865,24.587 20.77,24.666 20.672,24.742C20.574,24.818 20.474,24.891 20.371,24.961C20.269,25.03 20.164,25.097 20.058,25.16C19.951,25.223 19.843,25.283 19.732,25.34C19.622,25.397 19.51,25.45 19.396,25.499C19.283,25.549 19.168,25.595 19.051,25.638C18.935,25.68 18.817,25.719 18.698,25.754C18.58,25.789 18.46,25.821 18.339,25.849C18.218,25.876 18.097,25.9 17.974,25.921C17.852,25.941 17.729,25.957 17.606,25.97C17.483,25.983 17.359,25.991 17.235,25.996C17.111,26.001 16.987,26.003 16.863,26C16.739,25.997 16.616,25.991 16.492,25.98C16.369,25.97 16.246,25.956 16.123,25.938C16,25.92 15.878,25.898 15.757,25.872C15.636,25.847 15.515,25.818 15.396,25.785C15.276,25.752 15.158,25.715 15.041,25.674C14.924,25.634 14.808,25.59 14.693,25.543C14.579,25.495 14.466,25.444 14.354,25.39C14.243,25.335 14.134,25.277 14.026,25.216C13.918,25.154 13.812,25.09 13.709,25.022C13.605,24.954 13.503,24.883 13.404,24.809C13.305,24.735 13.208,24.658 13.113,24.577C13.019,24.497 12.927,24.414 12.837,24.328C12.748,24.242 12.661,24.154 12.577,24.063C12.494,23.971 12.413,23.878 12.334,23.781C12.256,23.685 12.181,23.587 12.109,23.486C12.037,23.385 11.969,23.282 11.903,23.176C11.837,23.071 11.775,22.964 11.716,22.855C11.657,22.746 11.602,22.635 11.549,22.523C11.497,22.41 11.449,22.296 11.404,22.181C11.359,22.065 11.317,21.949 11.28,21.831C11.242,21.712 11.208,21.593 11.177,21.473C11.147,21.353 11.12,21.232 11.097,21.11C11.074,20.988 11.055,20.866 11.04,20.743C11.025,20.62 11.013,20.497 11.005,20.373C10.998,20.249 10.994,20.125 10.994,20.001C10.994,19.877 10.998,19.753 11.005,19.63C11.013,19.506 11.025,19.383 11.04,19.26C11.055,19.137 11.074,19.014 11.097,18.892C11.12,18.771 11.147,18.65 11.177,18.529C11.208,18.409 11.242,18.29 11.28,18.172C11.317,18.054 11.359,17.937 11.404,17.822C11.449,17.706 11.497,17.592 11.549,17.48C11.602,17.367 11.657,17.256 11.716,17.147C11.775,17.038 11.837,16.931 11.903,16.826C11.969,16.721 12.037,16.618 12.109,16.517C12.181,16.416 12.256,16.317 12.334,16.221C12.413,16.125 12.494,16.031 12.577,15.94C12.661,15.849 12.748,15.76 12.837,15.674C12.927,15.588 13.019,15.505 13.113,15.425C13.208,15.345 13.305,15.268 13.404,15.194C13.503,15.119 13.605,15.048 13.709,14.981C13.812,14.913 13.918,14.848 14.026,14.787C14.134,14.725 14.243,14.668 14.354,14.613C14.466,14.558 14.579,14.507 14.693,14.46C14.808,14.412 14.924,14.368 15.041,14.328C15.158,14.288 15.276,14.251 15.396,14.218C15.515,14.185 15.636,14.156 15.757,14.13C15.878,14.105 16,14.083 16.123,14.065C16.246,14.047 16.369,14.033 16.492,14.022C16.616,14.012 16.739,14.005 16.863,14.003C16.987,14 17.111,14.001 17.235,14.006C17.359,14.011 17.483,14.02 17.606,14.033C17.729,14.045 17.852,14.062 17.974,14.082C18.097,14.102 18.218,14.126 18.339,14.154C18.46,14.182 18.58,14.213 18.698,14.248C18.817,14.284 18.935,14.323 19.051,14.365C19.168,14.408 19.283,14.454 19.396,14.503C19.51,14.553 19.622,14.606 19.732,14.663C19.843,14.719 19.951,14.779 20.058,14.842C20.164,14.906 20.269,14.972 20.371,15.042C20.474,15.112 20.574,15.185 20.672,15.261C20.77,15.337 20.865,15.416 20.958,15.497C21.051,15.579 21.142,15.664 21.229,15.752C21.317,15.839 21.402,15.929 21.485,16.022C21.567,16.115 21.646,16.21 21.722,16.308C21.799,16.405 21.872,16.505 21.942,16.608C22.012,16.71 22.079,16.814 22.143,16.921C22.206,17.027 22.267,17.135 22.323,17.245C22.38,17.355 22.434,17.467 22.484,17.581C22.534,17.694 22.58,17.809 22.623,17.925C22.666,18.041 22.705,18.159 22.741,18.278C22.777,18.396 22.809,18.516 22.837,18.637C22.865,18.758 22.889,18.879 22.91,19.001L46.09,19.001C46.15,18.656 46.24,18.319 46.36,17.99C46.479,17.661 46.626,17.344 46.801,17.041C46.976,16.737 47.176,16.452 47.401,16.183C47.626,15.915 47.873,15.668 48.141,15.442C48.409,15.217 48.695,15.017 48.998,14.842C49.301,14.666 49.617,14.519 49.946,14.399C50.275,14.279 50.612,14.189 50.957,14.128C51.302,14.067 51.65,14.037 52,14.037C52.35,14.037 52.698,14.067 53.043,14.128C53.388,14.189 53.725,14.279 54.054,14.399C54.383,14.519 54.699,14.666 55.002,14.842C55.305,15.017 55.591,15.217 55.859,15.442C56.127,15.668 56.374,15.915 56.599,16.183C56.824,16.452 57.024,16.737 57.199,17.041C57.374,17.344 57.521,17.661 57.64,17.99C57.76,18.319 57.85,18.656 57.91,19.001L61,19.001C61.133,19.001 61.26,19.027 61.383,19.077C61.505,19.128 61.613,19.2 61.707,19.294C61.801,19.388 61.873,19.496 61.924,19.619C61.975,19.741 62,19.869 62,20.001L62,31.001C61.999,31.228 61.929,31.432 61.79,31.611ZM4,30.001L4,45.001C4,45.198 4.019,45.393 4.058,45.587C4.096,45.78 4.153,45.967 4.228,46.149C4.304,46.331 4.396,46.504 4.506,46.668C4.615,46.832 4.739,46.983 4.879,47.123C5.018,47.262 5.17,47.386 5.333,47.496C5.497,47.605 5.67,47.698 5.852,47.773C6.034,47.848 6.222,47.905 6.415,47.944C6.608,47.982 6.803,48.001 7,48.001L40,48.001C40.197,48.001 40.392,47.982 40.585,47.944C40.778,47.905 40.966,47.848 41.148,47.773C41.33,47.698 41.503,47.605 41.667,47.496C41.83,47.386 41.982,47.262 42.121,47.123C42.261,46.983 42.385,46.832 42.494,46.668C42.604,46.504 42.696,46.331 42.772,46.149C42.847,45.967 42.904,45.78 42.942,45.587C42.981,45.393 43,45.198 43,45.001L43,30.001L4,30.001ZM17,16.001C16.737,16.001 16.477,16.027 16.22,16.078C15.962,16.129 15.712,16.205 15.469,16.306C15.227,16.406 14.996,16.529 14.778,16.675C14.559,16.821 14.357,16.987 14.172,17.173C13.986,17.359 13.82,17.561 13.674,17.779C13.528,17.997 13.405,18.228 13.304,18.471C13.204,18.713 13.128,18.963 13.077,19.221C13.026,19.479 13,19.739 13,20.001C13,20.264 13.026,20.524 13.077,20.782C13.128,21.039 13.204,21.289 13.304,21.532C13.405,21.775 13.528,22.005 13.674,22.224C13.82,22.442 13.986,22.644 14.172,22.83C14.357,23.015 14.559,23.181 14.778,23.327C14.996,23.473 15.227,23.596 15.469,23.697C15.712,23.797 15.962,23.873 16.22,23.924C16.477,23.976 16.737,24.001 17,24.001C17.263,24.001 17.523,23.976 17.78,23.924C18.038,23.873 18.288,23.797 18.531,23.697C18.773,23.596 19.004,23.473 19.222,23.327C19.441,23.181 19.643,23.015 19.828,22.83C20.014,22.644 20.18,22.442 20.326,22.224C20.472,22.005 20.595,21.775 20.696,21.532C20.796,21.289 20.872,21.039 20.923,20.782C20.974,20.524 21,20.264 21,20.001C21,19.739 20.974,19.479 20.923,19.221C20.872,18.963 20.796,18.713 20.696,18.471C20.595,18.228 20.472,17.997 20.326,17.779C20.18,17.561 20.014,17.359 19.828,17.173C19.643,16.987 19.441,16.821 19.222,16.675C19.004,16.529 18.773,16.406 18.531,16.306C18.288,16.205 18.038,16.129 17.78,16.078C17.523,16.027 17.263,16.001 17,16.001ZM52,16.001C51.737,16.001 51.477,16.027 51.22,16.078C50.962,16.129 50.712,16.205 50.469,16.306C50.227,16.406 49.996,16.529 49.778,16.675C49.559,16.821 49.357,16.987 49.172,17.173C48.986,17.359 48.82,17.561 48.674,17.779C48.528,17.997 48.405,18.228 48.304,18.471C48.204,18.713 48.128,18.963 48.077,19.221C48.026,19.479 48,19.739 48,20.001C48,20.264 48.026,20.524 48.077,20.782C48.128,21.039 48.204,21.289 48.304,21.532C48.405,21.775 48.528,22.005 48.674,22.224C48.82,22.442 48.986,22.644 49.172,22.83C49.357,23.015 49.559,23.181 49.778,23.327C49.996,23.473 50.227,23.596 50.469,23.697C50.712,23.797 50.962,23.873 51.22,23.924C51.477,23.976 51.737,24.001 52,24.001C52.263,24.001 52.523,23.976 52.78,23.924C53.038,23.873 53.288,23.797 53.531,23.697C53.773,23.596 54.004,23.473 54.222,23.327C54.441,23.181 54.643,23.015 54.828,22.83C55.014,22.644 55.18,22.442 55.326,22.224C55.472,22.005 55.595,21.775 55.696,21.532C55.796,21.289 55.872,21.039 55.923,20.782C55.974,20.524 56,20.264 56,20.001C56,19.739 55.974,19.479 55.923,19.221C55.872,18.963 55.796,18.713 55.696,18.471C55.595,18.228 55.472,17.997 55.326,17.779C55.18,17.561 55.014,17.359 54.828,17.173C54.643,16.987 54.441,16.821 54.222,16.675C54.004,16.529 53.773,16.406 53.531,16.306C53.288,16.205 53.038,16.129 52.78,16.078C52.523,16.027 52.263,16.001 52,16.001ZM60,21.001L57.91,21.001C57.85,21.346 57.76,21.683 57.64,22.013C57.521,22.342 57.374,22.658 57.199,22.962C57.024,23.265 56.824,23.551 56.599,23.819C56.374,24.088 56.127,24.335 55.859,24.56C55.591,24.785 55.305,24.986 55.002,25.161C54.699,25.336 54.383,25.484 54.054,25.604C53.725,25.723 53.388,25.814 53.043,25.875C52.698,25.936 52.35,25.966 52,25.966C51.65,25.966 51.302,25.936 50.957,25.875C50.612,25.814 50.275,25.723 49.946,25.604C49.617,25.484 49.301,25.336 48.998,25.161C48.695,24.986 48.409,24.785 48.141,24.56C47.873,24.335 47.626,24.088 47.401,23.819C47.176,23.551 46.976,23.265 46.801,22.962C46.626,22.658 46.479,22.342 46.36,22.013C46.24,21.683 46.15,21.346 46.09,21.001L45,21.001L45,39.001L53.51,39.001L60,30.661L60,21.001Z" style="fill-rule:nonzero;"/>
            </g>
            <g transform="matrix(15.9012,0,0,-15.884,2411.78,3097.66)">
                <path d="M52,35L48,35C47.867,35 47.74,34.975 47.617,34.924C47.495,34.873 47.387,34.801 47.293,34.707C47.199,34.613 47.127,34.505 47.076,34.383C47.025,34.26 47,34.133 47,34L47,28C47,27.867 47.025,27.74 47.076,27.617C47.127,27.495 47.199,27.387 47.293,27.293C47.387,27.199 47.495,27.127 47.617,27.076C47.74,27.025 47.867,27 48,27L57,27C57.194,27 57.373,27.052 57.537,27.156C57.701,27.26 57.824,27.399 57.907,27.575C57.989,27.751 58.018,27.935 57.993,28.127C57.969,28.32 57.894,28.491 57.77,28.64L52.77,34.64C52.675,34.754 52.56,34.843 52.425,34.906C52.29,34.969 52.149,35 52,35ZM49,29L49,33L51.53,33L54.86,29L49,29Z" style="fill-rule:nonzero;"/>
            </g>
            <g transform="matrix(15.9012,0,0,-15.884,2411.78,2907.05)">
                <path d="M24,31L23,31C22.737,31 22.477,30.974 22.22,30.923C21.962,30.872 21.712,30.796 21.469,30.696C21.227,30.595 20.996,30.472 20.778,30.326C20.559,30.18 20.357,30.014 20.172,29.828C19.986,29.643 19.82,29.441 19.674,29.222C19.528,29.004 19.405,28.773 19.304,28.531C19.204,28.288 19.128,28.038 19.077,27.78C19.026,27.523 19,27.263 19,27L19,23C19,22.737 19.026,22.477 19.077,22.22C19.128,21.962 19.204,21.712 19.304,21.469C19.405,21.227 19.528,20.996 19.674,20.778C19.82,20.559 19.986,20.357 20.172,20.172C20.357,19.986 20.559,19.82 20.778,19.674C20.996,19.528 21.227,19.405 21.469,19.304C21.712,19.204 21.962,19.128 22.22,19.077C22.477,19.026 22.737,19 23,19L24,19C24.263,19 24.523,19.026 24.78,19.077C25.038,19.128 25.288,19.204 25.531,19.304C25.773,19.405 26.004,19.528 26.222,19.674C26.441,19.82 26.643,19.986 26.828,20.172C27.014,20.357 27.18,20.559 27.326,20.778C27.472,20.996 27.595,21.227 27.696,21.469C27.796,21.712 27.872,21.962 27.923,22.22C27.974,22.477 28,22.737 28,23L28,27C28,27.263 27.974,27.523 27.923,27.78C27.872,28.038 27.796,28.288 27.696,28.531C27.595,28.773 27.472,29.004 27.326,29.222C27.18,29.441 27.014,29.643 26.828,29.828C26.643,30.014 26.441,30.18 26.222,30.326C26.004,30.472 25.773,30.595 25.531,30.696C25.288,30.796 25.038,30.872 24.78,30.923C24.523,30.974 24.263,31 24,31ZM26,23C26,22.869 25.987,22.739 25.962,22.61C25.936,22.481 25.898,22.356 25.848,22.235C25.798,22.113 25.736,21.998 25.663,21.889C25.59,21.78 25.507,21.679 25.414,21.586C25.321,21.493 25.22,21.41 25.111,21.337C25.002,21.264 24.887,21.202 24.765,21.152C24.644,21.102 24.519,21.064 24.39,21.038C24.261,21.013 24.131,21 24,21L23,21C22.869,21 22.739,21.013 22.61,21.038C22.481,21.064 22.356,21.102 22.235,21.152C22.113,21.202 21.998,21.264 21.889,21.337C21.78,21.41 21.679,21.493 21.586,21.586C21.493,21.679 21.41,21.78 21.337,21.889C21.264,21.998 21.202,22.113 21.152,22.235C21.102,22.356 21.064,22.481 21.038,22.61C21.013,22.739 21,22.869 21,23L21,27C21,27.131 21.013,27.261 21.038,27.39C21.064,27.519 21.102,27.644 21.152,27.765C21.202,27.887 21.264,28.002 21.337,28.111C21.41,28.22 21.493,28.321 21.586,28.414C21.679,28.507 21.78,28.59 21.889,28.663C21.998,28.736 22.113,28.798 22.235,28.848C22.356,28.898 22.481,28.936 22.61,28.962C22.739,28.987 22.869,29 23,29L24,29C24.131,29 24.261,28.987 24.39,28.962C24.519,28.936 24.644,28.898 24.765,28.848C24.887,28.798 25.002,28.736 25.111,28.663C25.22,28.59 25.321,28.507 25.414,28.414C25.507,28.321 25.59,28.22 25.663,28.111C25.736,28.002 25.798,27.887 25.848,27.765C25.898,27.644 25.936,27.519 25.962,27.39C25.987,27.261 26,27.131 26,27L26,23Z" style="fill-rule:nonzero;"/>
            </g>
            <g transform="matrix(15.9012,0,0,-15.884,2411.78,2907.05)">
                <path d="M34,31L31,31C30.867,31 30.74,30.975 30.617,30.924C30.495,30.873 30.387,30.801 30.293,30.707C30.199,30.613 30.127,30.505 30.076,30.383C30.025,30.26 30,30.133 30,30L30,20C30,19.867 30.025,19.74 30.076,19.617C30.127,19.495 30.199,19.387 30.293,19.293C30.387,19.199 30.495,19.127 30.617,19.076C30.74,19.025 30.867,19 31,19L34,19C34.164,19 34.327,19.008 34.49,19.024C34.653,19.04 34.815,19.064 34.975,19.096C35.136,19.128 35.295,19.168 35.451,19.215C35.608,19.263 35.762,19.318 35.913,19.381C36.065,19.443 36.213,19.513 36.357,19.59C36.501,19.668 36.642,19.752 36.778,19.843C36.914,19.934 37.045,20.031 37.172,20.135C37.299,20.239 37.42,20.349 37.536,20.464C37.651,20.58 37.761,20.701 37.865,20.828C37.969,20.955 38.066,21.086 38.157,21.222C38.248,21.358 38.332,21.499 38.41,21.643C38.487,21.787 38.557,21.935 38.619,22.087C38.682,22.238 38.737,22.392 38.785,22.549C38.832,22.705 38.872,22.864 38.904,23.025C38.936,23.185 38.96,23.347 38.976,23.51C38.992,23.673 39,23.836 39,24L39,26C39,26.164 38.992,26.327 38.976,26.49C38.96,26.653 38.936,26.815 38.904,26.975C38.872,27.136 38.832,27.295 38.785,27.451C38.737,27.608 38.682,27.762 38.619,27.913C38.557,28.065 38.487,28.213 38.41,28.357C38.332,28.501 38.248,28.642 38.157,28.778C38.066,28.914 37.969,29.045 37.865,29.172C37.761,29.299 37.651,29.42 37.536,29.536C37.42,29.651 37.299,29.761 37.172,29.865C37.045,29.969 36.914,30.066 36.778,30.157C36.642,30.248 36.501,30.332 36.357,30.41C36.213,30.487 36.065,30.557 35.913,30.619C35.762,30.682 35.608,30.737 35.451,30.785C35.295,30.832 35.136,30.872 34.975,30.904C34.815,30.936 34.653,30.96 34.49,30.976C34.327,30.992 34.164,31 34,31ZM37,24C37,23.803 36.981,23.608 36.942,23.415C36.904,23.222 36.847,23.034 36.772,22.852C36.696,22.67 36.604,22.497 36.494,22.333C36.385,22.17 36.261,22.018 36.121,21.879C35.982,21.739 35.83,21.615 35.667,21.506C35.503,21.396 35.33,21.304 35.148,21.228C34.966,21.153 34.778,21.096 34.585,21.058C34.392,21.019 34.197,21 34,21L32,21L32,29L34,29C34.197,29 34.392,28.981 34.585,28.942C34.778,28.904 34.966,28.847 35.148,28.772C35.33,28.696 35.503,28.604 35.667,28.494C35.83,28.385 35.982,28.261 36.121,28.121C36.261,27.982 36.385,27.83 36.494,27.667C36.604,27.503 36.696,27.33 36.772,27.148C36.847,26.966 36.904,26.778 36.942,26.585C36.981,26.392 37,26.197 37,26L37,24Z" style="fill-rule:nonzero;"/>
            </g>
            <g transform="matrix(15.9012,0,0,-15.884,2411.78,2907.05)">
                <path d="M13,29L16,29C16.133,29 16.26,29.025 16.383,29.076C16.505,29.127 16.613,29.199 16.707,29.293C16.801,29.387 16.873,29.495 16.924,29.617C16.975,29.74 17,29.867 17,30C17,30.133 16.975,30.26 16.924,30.383C16.873,30.505 16.801,30.613 16.707,30.707C16.613,30.801 16.505,30.873 16.383,30.924C16.26,30.975 16.133,31 16,31L13,31C12.836,31 12.673,30.992 12.51,30.976C12.347,30.96 12.185,30.936 12.025,30.904C11.864,30.872 11.705,30.832 11.549,30.785C11.392,30.737 11.238,30.682 11.087,30.619C10.935,30.557 10.787,30.487 10.643,30.41C10.499,30.332 10.358,30.248 10.222,30.157C10.086,30.066 9.955,29.969 9.828,29.865C9.701,29.761 9.58,29.651 9.464,29.536C9.349,29.42 9.239,29.299 9.135,29.172C9.031,29.045 8.934,28.914 8.843,28.778C8.752,28.642 8.668,28.501 8.59,28.357C8.513,28.213 8.443,28.065 8.381,27.913C8.318,27.762 8.263,27.608 8.215,27.451C8.168,27.295 8.128,27.136 8.096,26.975C8.064,26.815 8.04,26.653 8.024,26.49C8.008,26.327 8,26.164 8,26L8,24C8,23.836 8.008,23.673 8.024,23.51C8.04,23.347 8.064,23.185 8.096,23.025C8.128,22.864 8.168,22.705 8.215,22.549C8.263,22.392 8.318,22.238 8.381,22.087C8.443,21.935 8.513,21.787 8.59,21.643C8.668,21.499 8.752,21.358 8.843,21.222C8.934,21.086 9.031,20.955 9.135,20.828C9.239,20.701 9.349,20.58 9.464,20.464C9.58,20.349 9.701,20.239 9.828,20.135C9.955,20.031 10.086,19.934 10.222,19.843C10.358,19.752 10.499,19.668 10.643,19.59C10.787,19.513 10.935,19.443 11.087,19.381C11.238,19.318 11.392,19.263 11.549,19.215C11.705,19.168 11.864,19.128 12.025,19.096C12.185,19.064 12.347,19.04 12.51,19.024C12.673,19.008 12.836,19 13,19L16,19C16.133,19 16.26,19.025 16.383,19.076C16.505,19.127 16.613,19.199 16.707,19.293C16.801,19.387 16.873,19.495 16.924,19.617C16.975,19.74 17,19.867 17,20C17,20.133 16.975,20.26 16.924,20.383C16.873,20.505 16.801,20.613 16.707,20.707C16.613,20.801 16.505,20.873 16.383,20.924C16.26,20.975 16.133,21 16,21L13,21C12.803,21 12.608,21.019 12.415,21.058C12.222,21.096 12.034,21.153 11.852,21.228C11.67,21.304 11.497,21.396 11.333,21.506C11.17,21.615 11.018,21.739 10.879,21.879C10.739,22.018 10.615,22.17 10.506,22.333C10.396,22.497 10.304,22.67 10.228,22.852C10.153,23.034 10.096,23.222 10.058,23.415C10.019,23.608 10,23.803 10,24L10,26C10,26.197 10.019,26.392 10.058,26.585C10.096,26.778 10.153,26.966 10.228,27.148C10.304,27.33 10.396,27.503 10.506,27.667C10.615,27.83 10.739,27.982 10.879,28.121C11.018,28.261 11.17,28.385 11.333,28.494C11.497,28.604 11.67,28.696 11.852,28.772C12.034,28.847 12.222,28.904 12.415,28.942C12.608,28.981 12.803,29 13,29Z" style="fill-rule:nonzero;"/>
            </g>
        </g>
    </g>
</svg>
