<?xml version="1.0" encoding="UTF-8" standalone="no"?><!DOCTYPE svg PUBLIC "-//W3C//DTD SVG 1.1//EN" "http://www.w3.org/Graphics/SVG/1.1/DTD/svg11.dtd"><svg width="100%" height="100%" viewBox="0 0 960 678" version="1.1" xmlns="http://www.w3.org/2000/svg" xmlns:xlink="http://www.w3.org/1999/xlink" xml:space="preserve" xmlns:serif="http://www.serif.com/" style="fill-rule:evenodd;clip-rule:evenodd;stroke-linejoin:round;stroke-miterlimit:2;"><path d="M913.652,356.936c-42.096,-32.998 -109.176,-59.502 -193.067,-78.458c-30.327,-6.825 -62.881,-12.597 -97.158,-17.202l-0,-159.768c-0.083,-17.91 -10.784,-32.893 -25.857,-44.708c-22.869,-17.872 -57.876,-31.515 -101.387,-41.381c-43.496,-9.783 -95.428,-15.419 -151.287,-15.419c-92.831,0.023 -176.858,12.447 -238.76,33.036c-30.967,10.347 -56.455,22.651 -75.072,37.265c-18.414,14.456 -30.981,32.343 -31.064,53.301l-0,229.699c0.083,24.758 14.968,46.296 37.588,64.055c34.21,26.797 88.136,48.026 155.487,63.265c67.328,15.148 147.975,23.907 234.771,23.915c141.956,-0.023 270.502,19.242 362.452,49.915c45.964,15.276 82.748,33.487 107.144,52.759c24.6,19.422 35.828,38.777 35.753,56.936c-0,3.446 1.399,6.81 3.838,9.248c2.438,2.438 5.809,3.838 9.256,3.838c3.446,-0 6.81,-1.4 9.248,-3.838c2.438,-2.438 3.838,-5.802 3.838,-9.248l-0,-229.708c-0.083,-29.536 -17.872,-55.611 -45.723,-77.502Zm-485.806,-108.28c-67.328,0.015 -130.811,-5.448 -186.655,-14.975l-0,-80.332c15.065,9.406 35.052,16.548 58.937,21.996c18.768,4.214 39.876,7.232 62.505,8.782c0.323,0.038 0.639,0.053 0.963,0.068c11.13,0.737 22.621,1.129 34.39,1.129c59.833,-0.023 114,-8 154.29,-21.395c17.85,-5.967 33.005,-12.943 44.97,-21.304l0,115.407c-53.188,-6.065 -110.131,-9.369 -169.4,-9.376Zm-186.655,-133.031c-0.068,-0.587 0.496,-3.176 5.689,-7.315c7.593,-6.118 23.479,-12.89 44.015,-17.428c17.233,-3.883 37.784,-6.464 60.029,-7.194l-0,73.19c-26.692,-2.634 -50.382,-7.442 -68.932,-13.628c-14.418,-4.778 -25.668,-10.483 -32.441,-15.856c-6.9,-5.485 -8.405,-9.542 -8.36,-11.686l-0,-0.083Zm-215.011,7.977c-0.075,-9.572 5.93,-20.747 21.086,-32.735c22.455,-17.835 63.189,-34.563 114.993,-46.137c51.826,-11.672 114.804,-18.565 182.637,-18.557c72.091,-0.03 137.38,9.82 183.555,25.224c23.072,7.661 41.321,16.781 52.925,25.97c11.807,9.346 15.946,17.616 15.87,24.141c0.076,4.063 -2.581,10.008 -11.701,17.24c-13.388,10.686 -38.973,21.349 -71.701,28.633c-32.772,7.383 -72.768,11.77 -115.858,11.77c-7.073,-0 -14.049,-0.143 -20.882,-0.437l-0.008,-88.323c0,-3.462 -1.392,-6.833 -3.83,-9.264c-2.431,-2.438 -5.81,-3.838 -9.256,-3.838c-38.732,0.031 -73.785,5.155 -100.236,13.937c-13.244,4.433 -24.382,9.708 -33.088,16.518c-8.511,6.652 -15.593,15.961 -15.675,27.904c-0,0.015 0.007,0.03 0.007,0.045l0,113.149c-27.911,-5.659 -53.534,-12.379 -76.313,-19.98c-36.58,-12.145 -65.763,-26.639 -84.922,-41.765c-19.197,-15.17 -27.543,-29.867 -27.603,-43.157l0,-0.338Zm907.015,480.951c-5.742,-6.245 -12.304,-12.221 -19.543,-17.917c-6.683,-5.238 -14.065,-10.287 -21.974,-15.194l0,-84.38c0,-7.224 -5.854,-13.086 -13.079,-13.086c-7.231,-0 -13.094,5.862 -13.094,13.086l0,69.789c-25.239,-12.642 -54.821,-23.953 -88.03,-33.856l0,-41.569c0,-7.232 -5.862,-13.087 -13.093,-13.087c-7.225,0 -13.087,5.855 -13.087,13.087l0,34.225c-9.963,-2.612 -20.205,-5.103 -30.71,-7.473c-18.324,-4.124 -37.483,-7.841 -57.305,-11.175l0,-80.083c0,-7.225 -5.862,-13.087 -13.094,-13.087c-7.239,0 -13.094,5.862 -13.094,13.087l0,75.952c-28.159,-4.102 -57.598,-7.383 -88.03,-9.791l0,-42.126c0,-7.232 -5.862,-13.086 -13.086,-13.086c-7.232,-0 -13.086,5.854 -13.086,13.086l-0,40.298c-28.611,-1.754 -58.012,-2.709 -88.023,-2.852l0,-80.287c0,-7.224 -5.862,-13.094 -13.086,-13.094c-7.232,0 -13.094,5.87 -13.094,13.094l0,80.091c-30.342,-0.467 -59.795,-2.047 -88.045,-4.59l0,-40.825c0,-7.224 -5.862,-13.086 -13.086,-13.086c-7.225,-0 -13.087,5.862 -13.087,13.086l0,38.146c-31.297,-3.59 -60.811,-8.391 -88.037,-14.223l-0,-79.91c-0,-7.232 -5.855,-13.094 -13.087,-13.094c-7.224,-0 -13.086,5.862 -13.086,13.094l0,73.83c-14.689,-3.718 -28.603,-7.744 -41.554,-12.063c-17.233,-5.727 -32.803,-11.98 -46.476,-18.557l0,-40.727c0,-7.224 -5.862,-13.086 -13.086,-13.086c-7.224,-0 -13.094,5.862 -13.094,13.086l-0,26.225c-4.448,-2.874 -8.549,-5.786 -12.266,-8.714c-19.363,-15.306 -27.678,-30.116 -27.603,-43.496l0,-175.585c3.522,3.439 7.337,6.75 11.408,9.94c34.21,26.798 88.136,48.034 155.487,63.265c67.328,15.148 147.975,23.907 234.771,23.915c141.956,-0.023 270.502,19.25 362.452,49.915c45.964,15.276 82.748,33.479 107.144,52.759c24.615,19.423 35.828,38.778 35.753,56.928l-0,170.115" style="fill-rule:nonzero;"/></svg>