<svg width="105" height="105" viewBox="0 0 105 105" fill="none" xmlns="http://www.w3.org/2000/svg">
<path d="M87.5 91.875C87.5 85.7694 87.5 82.7166 86.7465 80.2325C85.0498 74.6395 80.673 70.2627 75.08 68.566C72.5959 67.8125 69.5431 67.8125 63.4375 67.8125H41.5625C35.4569 67.8125 32.4041 67.8125 29.92 68.566C24.327 70.2627 19.9502 74.6395 18.2535 80.2325C17.5 82.7166 17.5 85.7694 17.5 91.875M72.1875 32.8125C72.1875 43.6856 63.3731 52.5 52.5 52.5C41.6269 52.5 32.8125 43.6856 32.8125 32.8125C32.8125 21.9394 41.6269 13.125 52.5 13.125C63.3731 13.125 72.1875 21.9394 72.1875 32.8125Z" stroke="white" stroke-width="6" stroke-linecap="round" stroke-linejoin="round"/>
</svg>
