<svg width="91" height="91" viewBox="0 0 91 91" fill="none" xmlns="http://www.w3.org/2000/svg">
<path d="M3 3H8.5823C9.63374 3 10.1595 3 10.5825 3.19227C10.9554 3.36171 11.2713 3.63421 11.4927 3.97727C11.7439 4.36656 11.8183 4.88411 11.967 5.91917L13.9898 20M13.9898 20L18.4854 52.8585C19.0559 57.0282 19.3411 59.1131 20.3436 60.6825C21.2269 62.0653 22.4932 63.1649 23.9902 63.8488C25.6891 64.625 27.805 64.625 32.0368 64.625H68.6116C72.6399 64.625 74.654 64.625 76.3 63.9043C77.7514 63.2688 78.9964 62.2443 79.8957 60.9454C80.9156 59.4724 81.2925 57.5048 82.0463 53.5697L87.7032 24.0362C87.9685 22.6512 88.1012 21.9587 87.9089 21.4174C87.7403 20.9425 87.4075 20.5427 86.97 20.2891C86.4713 20 85.7624 20 84.3445 20H13.9898ZM37.1905 83.75C37.1905 86.0972 35.2771 88 32.9167 88C30.5563 88 28.6429 86.0972 28.6429 83.75C28.6429 81.4028 30.5563 79.5 32.9167 79.5C35.2771 79.5 37.1905 81.4028 37.1905 83.75ZM71.3811 83.75C71.3811 86.0972 69.4676 88 67.1072 88C64.7469 88 62.8334 86.0972 62.8334 83.75C62.8334 81.4028 64.7469 79.5 67.1072 79.5C69.4676 79.5 71.3811 81.4028 71.3811 83.75Z" stroke="white" stroke-width="6" stroke-linecap="round" stroke-linejoin="round"/>
</svg>
